<?xml version="1.0" encoding="UTF-8" standalone="no"?>
<!-- Created with Inkscape (http://www.inkscape.org/) -->

<svg
   width="200"
   height="200"
   viewBox="0 0 200 200"
   version="1.1"
   id="svg5"
   xml:space="preserve"
   xmlns="http://www.w3.org/2000/svg"
   xmlns:svg="http://www.w3.org/2000/svg"><defs
     id="defs2"><linearGradient
       id="linearGradient25815"><stop
         style="stop-color:#1a1a1a;stop-opacity:1;"
         offset="0"
         id="stop25813" /></linearGradient><filter
       style="color-interpolation-filters:sRGB"
       id="filter3022"
       x="0"
       y="0"
       width="1"
       height="1"><feColorMatrix
         type="hueRotate"
         values="330"
         result="color1"
         id="feColorMatrix3018" /><feColorMatrix
         type="saturate"
         values="0"
         result="color2"
         id="feColorMatrix3020" /></filter><filter
       style="color-interpolation-filters:sRGB"
       id="filter3028"
       x="-0.36972579"
       y="-0.30071047"
       width="1.7394516"
       height="1.6014209"><feColorMatrix
         type="hueRotate"
         values="330"
         result="color1"
         id="feColorMatrix3024" /><feColorMatrix
         type="saturate"
         values="0"
         result="color2"
         id="feColorMatrix3026" /></filter><filter
       style="color-interpolation-filters:sRGB"
       id="filter3034"
       x="-0.36972579"
       y="-0.30071047"
       width="1.7394516"
       height="1.6014209"><feColorMatrix
         type="hueRotate"
         values="330"
         result="color1"
         id="feColorMatrix3030" /><feColorMatrix
         type="saturate"
         values="0"
         result="color2"
         id="feColorMatrix3032" /></filter><filter
       style="color-interpolation-filters:sRGB"
       id="filter3040"
       x="-0.36972579"
       y="-0.30071047"
       width="1.7394516"
       height="1.6014209"><feColorMatrix
         type="hueRotate"
         values="330"
         result="color1"
         id="feColorMatrix3036" /><feColorMatrix
         type="saturate"
         values="0"
         result="color2"
         id="feColorMatrix3038" /></filter><filter
       style="color-interpolation-filters:sRGB"
       id="filter3046"
       x="-0.11085365"
       y="-2.0581982"
       width="1.2217073"
       height="5.1163964"><feColorMatrix
         type="hueRotate"
         values="330"
         result="color1"
         id="feColorMatrix3042" /><feColorMatrix
         type="saturate"
         values="0"
         result="color2"
         id="feColorMatrix3044" /></filter><filter
       style="color-interpolation-filters:sRGB"
       id="filter3052"
       x="-0.0056888978"
       y="-0.028232168"
       width="1.0103067"
       height="1.0496105"><feColorMatrix
         type="hueRotate"
         values="330"
         result="color1"
         id="feColorMatrix3048" /><feColorMatrix
         type="saturate"
         values="0"
         result="color2"
         id="feColorMatrix3050" /></filter></defs><g
     id="layer1"
     transform="translate(-7.6043484,-11.531164)"><path
       style="display:inline;fill:#2e1e00;fill-opacity:1;stroke-width:0.366241;stroke-dasharray:none;filter:url(#filter3022)"
       d="M 24.860235,65.696079 C 18.411982,65.364967 11.168088,63.560683 10.277308,62.238993 10.068927,61.929807 10.65915,56.823396 11.032077,50.277785 11.361421,46.277987 12.108727,39.485611 11.958258,35.58599 11.737436,29.863003 11.610363,28.355663 9.5501063,23.128993 7.9401066,18.54278 7.1020993,17.903799 7.9255035,15.886975 13.295544,14.593516 16.664769,13.07327 22.110091,13.438778 c 1.207708,-0.06084 5.196221,3.448247 7.527639,5.843038 2.35111,2.415018 2.071532,2.261199 4.17887,4.510837 0.973808,-0.944662 3.282875,-2.8433 5.016433,-4.570358 3.029354,-3.017992 3.92678,-3.738422 7.142545,-5.537813 2.248896,-1.258377 8.569374,0.171935 10.537586,0.412048 1.628187,0.326395 3.371037,0.350756 3.845678,1.051947 0.858477,1.268229 -0.0815,3.644715 -1.736976,8.195958 -0.553854,1.522663 -1.388953,3.403486 -1.671206,5.825872 -0.394265,3.383705 -0.171816,6.997215 0.03557,9.78968 l 0.610751,11.083068 c 0.339378,6.158595 0.865379,11.229603 0.734213,11.482433 -0.386985,0.745937 -4.93005,1.964548 -9.022286,2.815233 -3.981926,0.827755 -8.217379,1.163825 -12.698611,1.388657 -0.854099,0.04284 -1.799566,-3.773896 -2.50801,-3.81811 -0.731304,-0.04565 -0.59746,0.881004 -1.923695,2.570161 -1.379943,1.757561 -1.383479,1.5194 -7.318358,1.21465 z m 7.419001,-23.403584 c 0.01077,-3.014648 -0.007,-14.893683 0.03804,-16.930398 0.0093,-0.421126 -1.64277,-2.42558 -4.696554,-5.184905 -1.830809,-1.654274 -3.516896,-3.607679 -5.522272,-4.790997 -1.833285,-1.081773 -4.26384,-0.308942 -6.532143,0.288067 -3.383111,0.865444 -6.3538504,1.815228 -6.4541804,1.889439 -0.100328,0.07421 0.4003137,0.951984 0.9373994,2.044824 2.694596,5.48285 3.906527,10.276795 3.539978,17.147025 -0.457061,8.566678 -1.103426,19.085872 -1.341194,21.827079 l -0.226693,2.613555 2.238897,0.757792 c 3.9606,1.340532 9.90488,2.246615 15.221729,2.320231 l 2.816806,-2.842425 -0.06678,-5.994133 z m 8.813858,21.552482 c 5.360853,-0.597691 8.842458,-1.265376 11.966314,-2.294833 l 2.506674,-0.826067 -0.296308,-8.674562 c -0.162969,-4.771012 -0.473766,-11.03852 -0.69066,-13.927804 -0.567614,-7.561235 0.629313,-13.646875 3.698132,-18.802706 0.556976,-0.935759 1.13346,-3.015204 1.065315,-3.036903 -1.319925,-0.42031 -0.598656,-0.321099 -4.088127,-0.846784 l -3.798256,-0.572203 -3.967715,0.10813 c 0,0 -0.266272,-0.117047 -4.395904,3.310489 -5.694985,4.690983 -0.541714,0.277153 -7.682062,6.784284 -0.252667,4.32719 -0.355254,32.707243 0.0025,36.43665 1.256804,3.002841 1.394778,2.63914 5.679964,2.342312 z"
       id="path302"
       transform="matrix(3.4771098,0,0,3.4771098,-10.836806,-22.563958)" /><ellipse
       style="fill:#d6cbad;fill-opacity:1;stroke:#d6cbad;stroke-width:1.08507;stroke-linecap:round;stroke-linejoin:round;stroke-dasharray:none;stroke-dashoffset:0;stroke-opacity:1;filter:url(#filter3028)"
       id="path3826-4"
       cx="33.647179"
       cy="42.302982"
       rx="0.73369914"
       ry="0.90208864"
       transform="matrix(3.4771098,0,0,3.4771098,-10.836806,-22.563958)" /><ellipse
       style="fill:#d6cbad;fill-opacity:1;stroke:#d6cbad;stroke-width:1.08507;stroke-linecap:round;stroke-linejoin:round;stroke-dasharray:none;stroke-dashoffset:0;stroke-opacity:1;filter:url(#filter3034)"
       id="path3826-6"
       cx="33.7075"
       cy="32.449211"
       rx="0.73369914"
       ry="0.90208864"
       transform="matrix(3.4771098,0,0,3.4771098,-10.836806,-22.563958)" /><ellipse
       style="fill:#d6cbad;fill-opacity:1;stroke:#d6cbad;stroke-width:1.08507;stroke-linecap:round;stroke-linejoin:round;stroke-dasharray:none;stroke-dashoffset:0;stroke-opacity:1;filter:url(#filter3040)"
       id="path3826-7"
       cx="33.647175"
       cy="51.372524"
       rx="0.73369914"
       ry="0.90208864"
       transform="matrix(3.4771098,0,0,3.4771098,-10.836806,-22.563958)" /><path
       style="fill:#186157;fill-opacity:1;stroke:#2f2f2f;stroke-width:1.64944;stroke-linecap:round;stroke-linejoin:round;stroke-dasharray:none;stroke-dashoffset:0;stroke-opacity:1;filter:url(#filter3046)"
       d="m 18.760384,49.34249 7.439719,0.4007"
       id="path2566"
       transform="matrix(3.4771098,0,0,3.4771098,-10.836806,-22.563958)" /><g
       id="g19185"
       transform="matrix(3.8589712,0,0,3.8589712,0.3745759,5.0148588)"
       style="filter:url(#filter3052)"><path
         style="opacity:1;fill:#e5f3f3;fill-opacity:1;stroke:#000000;stroke-width:0.718;stroke-linecap:round;stroke-linejoin:bevel;stroke-dasharray:none;stroke-opacity:1"
         d="M 16.963907,5.2772994 22.929704,4.362977 27.015952,6.2862511 30.099768,6.25247 33.831141,4.4967876 40.300091,5.0785288 39.113192,5.4520252 36.436705,6.4955741 35.24521,7.4564576 33.746232,8.7248238 29.979568,6.5724448 H 26.98161 l -3.651357,2.9210859 -3.30544,-2.9979566 z"
         id="path12232" /><path
         style="opacity:1;fill:#ffda00;fill-opacity:1;stroke:#000000;stroke-width:0.618;stroke-linecap:round;stroke-linejoin:bevel;stroke-dasharray:none;stroke-opacity:1"
         d="m 25.540285,7.7831568 1.44736,1.484504 -0.326133,1.0055822 -0.570737,1.494784 -0.135889,0.51638 1.833867,2.032758 2.748127,-2.459862 -0.134525,-0.461224 -0.365136,-0.653401 -0.884012,-1.6335018 1.885664,-1.9376877 -0.97777,-0.7021279 c -0.895909,-0.013041 -2.182352,0.017197 -3.21538,0.038436 z"
         id="path14958" /><path
         style="opacity:1;fill:#e5f3f3;fill-opacity:0;stroke:#000000;stroke-width:0.218;stroke-linecap:round;stroke-linejoin:bevel;stroke-dasharray:none;stroke-opacity:1"
         d="m 26.933289,9.2133051 1.141474,0.1087115 1.087114,-0.244601"
         id="path17909" /><path
         style="opacity:1;fill:#e5f3f3;fill-opacity:1;stroke:#000000;stroke-width:1.54583;stroke-linecap:round;stroke-linejoin:bevel;stroke-dasharray:none;stroke-opacity:1"
         d="M 97.750151,46.058407 C 97.387057,45.540018 93.069755,40.982896 90.269136,38.161832 L 88.242995,36.1209 92.272964,32.895887 c 2.216483,-1.773757 4.067235,-3.225013 4.112784,-3.225013 0.04555,0 1.268771,1.21994 2.718272,2.710977 l 2.63546,2.710977 -0.63228,1.937581 c -0.34775,1.06567 -1.10608,3.179618 -1.685172,4.697662 -0.579092,1.518045 -1.145043,3.119618 -1.25767,3.559052 -0.112627,0.439434 -0.228435,0.82624 -0.257352,0.859568 -0.02892,0.03333 -0.0995,-0.0064 -0.156855,-0.08828 z"
         id="path19103"
         transform="scale(0.26458333)" /><path
         style="opacity:1;fill:#e5f3f3;fill-opacity:1;stroke:#000000;stroke-width:1.54583;stroke-linecap:round;stroke-linejoin:bevel;stroke-dasharray:none;stroke-opacity:1"
         d="m 115.53379,44.399206 c -0.35077,-1.209025 -0.4801,-1.532851 -0.9328,-2.33576 -0.27891,-0.49467 -1.3216,-2.402036 -2.31708,-4.238594 l -1.80997,-3.339194 1.39917,-1.443294 c 0.76955,-0.793812 2.31855,-2.384924 3.44223,-3.535805 l 2.04305,-2.092511 4.92978,2.820383 c 2.71138,1.55121 4.97814,2.848937 5.03725,2.883837 0.0827,0.04884 -0.58622,0.746568 -2.90535,3.030379 -3.88691,3.827714 -4.85369,4.757707 -6.79167,6.53326 -2.08688,1.911979 -2.04749,1.879686 -2.09461,1.717299 z"
         id="path19105"
         transform="scale(0.26458333)" /><path
         style="opacity:1;fill:#b1c5c5;fill-opacity:1;stroke:#000000;stroke-width:2.30173;stroke-linecap:round;stroke-linejoin:bevel;stroke-dasharray:none;stroke-opacity:1"
         d="M 100.96087,23.265304 C 97.735537,21.40772 84.72053,16.671346 85.979848,16.347345 c 3.46138,-0.587513 3.130891,-0.472187 6.589554,-1.158078 l 6.288476,-1.247074 4.919242,-0.267194 4.91924,-0.267193 5.62911,0.561068 5.62912,0.561068 4.56889,1.208341 c 2.42427,0.64115 2.93455,0.960707 2.94575,0.971909 0.0112,0.0112 -2.07884,1.758955 -6.21385,3.507257 l -7.51821,3.178731 -4.29993,0.06574 c -2.36496,0.03615 -5.08438,0.0792 -6.04314,0.09564 l -1.74321,0.02991 z"
         id="path19032"
         transform="scale(0.26458333)" /></g></g></svg>
