<?xml version="1.0" encoding="UTF-8" standalone="no"?>
<!-- Created with Inkscape (http://www.inkscape.org/) -->

<svg
   width="53.37149mm"
   height="43.678387mm"
   viewBox="0 0 53.37149 43.678387"
   version="1.1"
   id="svg5"
   xml:space="preserve"
   inkscape:version="1.2.1 (9c6d41e410, 2022-07-14)"
   sodipodi:docname="packageIcon.svg"
   inkscape:export-filename="packageIcon.png"
   inkscape:export-xdpi="96"
   inkscape:export-ydpi="96"
   xmlns:inkscape="http://www.inkscape.org/namespaces/inkscape"
   xmlns:sodipodi="http://sodipodi.sourceforge.net/DTD/sodipodi-0.dtd"
   xmlns="http://www.w3.org/2000/svg"
   xmlns:svg="http://www.w3.org/2000/svg"><sodipodi:namedview
     id="namedview7"
     pagecolor="#ffffff"
     bordercolor="#000000"
     borderopacity="0.25"
     inkscape:showpageshadow="2"
     inkscape:pageopacity="0.0"
     inkscape:pagecheckerboard="0"
     inkscape:deskcolor="#d1d1d1"
     inkscape:document-units="mm"
     showgrid="false"
     inkscape:zoom="2.4338103"
     inkscape:cx="87.311652"
     inkscape:cy="111.34804"
     inkscape:window-width="1600"
     inkscape:window-height="837"
     inkscape:window-x="-8"
     inkscape:window-y="-8"
     inkscape:window-maximized="1"
     inkscape:current-layer="layer1" /><defs
     id="defs2" /><g
     inkscape:label="Layer 1"
     inkscape:groupmode="layer"
     id="layer1"
     transform="translate(-6.5222542,-11.208819)"><path
       style="fill:#186157;fill-opacity:1;stroke-width:0.297488"
       d="M 24.709988,54.669054 C 18.911421,54.229072 11.774824,52.706242 10.97219,51.73764 c -0.187761,-0.226587 -0.076,-4.013035 0.260024,-8.809992 L 11.821526,34.51503 10.161858,31.736737 C 6.7101552,25.958568 6.5606864,25.564306 6.5245695,22.142459 6.4883757,18.713532 6.8609982,17.964477 8.7443944,17.680099 9.2693362,17.600837 12.195428,17.009453 15.24682,16.365913 l 5.547987,-1.170075 0.996463,-1.335799 c 1.063644,-1.425861 1.521792,-1.605852 5.987078,-2.352131 2.920793,-0.488149 9.367799,-0.35938 12.273444,0.245144 3.087766,0.642414 3.291783,0.744087 4.287652,2.136765 0.443335,0.619986 1.113937,1.226371 1.490219,1.347521 0.376283,0.121151 3.399125,0.787183 6.717424,1.480073 3.318302,0.692888 6.178589,1.347219 6.356197,1.454067 0.671906,0.404219 1.171651,2.983565 0.927608,4.787714 -0.325005,2.402693 -0.961471,3.875362 -3.491281,8.078187 l -2.084713,3.463382 0.441602,8.210656 c 0.24288,4.51586 0.3449,8.362254 0.226713,8.54754 -0.348691,0.546661 -4.496556,1.749186 -8.183848,2.372612 -6.782262,1.146706 -15.301969,1.547948 -22.029377,1.037485 z M 31.422027,37.053516 V 20.805601 l -1.53418,-0.27059 c -2.792984,-0.492611 -6.46033,-2.174727 -7.739623,-3.549964 -0.276719,-0.297473 -1.139243,-0.17921 -5.866848,0.804422 -3.048338,0.634241 -5.616399,1.197664 -5.706801,1.252049 -0.0904,0.05439 0.289685,0.728734 0.84464,1.498551 2.482311,3.44339 3.51996,7.531359 3.189683,12.566214 -0.411833,6.278099 -0.994238,13.987101 -1.208477,15.995997 l -0.204261,1.915346 2.017349,0.555349 c 3.568682,0.982411 8.924751,1.646434 13.715476,1.700384 l 2.493042,0.02807 z M 17.561331,31.035107 c -0.589064,-0.923499 0.0048,-1.038332 5.369632,-1.038332 4.401246,0 5.183625,0.0545 5.388284,0.375357 0.533228,0.835959 -0.425143,1.009086 -5.585985,1.009086 -4.047215,0 -4.991468,-0.06319 -5.171931,-0.346111 z m 21.829564,21.92369 c 4.830374,-0.438019 7.96746,-0.927332 10.782198,-1.68177 l 2.258628,-0.605385 -0.266987,-6.357161 c -0.146843,-3.49644 -0.426885,-8.08959 -0.622317,-10.207005 -0.511446,-5.541259 0.56704,-10.001126 3.332187,-13.779582 0.501861,-0.685771 0.867087,-1.268682 0.81162,-1.295359 -0.05547,-0.02668 -2.620864,-0.57404 -5.700881,-1.216362 l -5.600027,-1.167859 -1.442967,1.038511 c -1.91835,1.380648 -4.096496,2.302283 -6.533153,2.764365 l -2.000456,0.379361 -0.246836,2.426972 c -0.321973,3.165774 -0.320102,25.198825 0.0023,27.931925 0.28686,2.431247 -0.211632,2.262492 5.22662,1.769349 z M 37.032694,31.070816 c -0.245324,-0.177831 -0.336484,-0.495088 -0.202577,-0.70502 0.212894,-0.333764 0.899993,-0.373652 5.472135,-0.317669 l 5.228671,0.06402 V 30.689 31.265851 l -5.026095,0.06415 c -3.941651,0.05031 -5.122332,-0.0056 -5.472134,-0.259179 z m -24.59615,-0.72793 c 0,-0.06345 -0.08629,-0.115371 -0.191772,-0.115371 -0.105484,0 -0.191772,0.05192 -0.191772,0.115371 0,0.06345 0.08629,0.11537 0.191772,0.11537 0.105484,0 0.191772,-0.05191 0.191772,-0.11537 z m 43.559607,-3.5476 c 0.513981,-1.062829 1.028901,-2.827993 1.14426,-3.922587 0.208427,-1.977613 0.205792,-1.985075 -0.417784,-1.182579 -0.803945,1.034618 -2.352378,5.209069 -2.653253,7.152953 l -0.23214,1.499813 0.612202,-0.807592 c 0.33671,-0.444175 1.03273,-1.677178 1.546715,-2.740008 z M 11.511479,26.582227 C 11.188203,25.455258 10.504431,23.76371 9.9919873,22.823231 l -0.9317161,-1.709962 -0.031152,1.384442 c -0.036117,1.604462 0.7374054,3.991023 1.9690698,6.075257 0.768179,1.299922 0.876122,1.38339 0.982056,0.759369 0.06546,-0.385593 -0.145486,-1.623143 -0.468763,-2.75011 z m 20.102322,-8.353213 c 0,-0.773997 -0.125795,-0.922962 -0.779411,-0.922962 -1.252328,0 -3.442889,-0.638259 -5.252872,-1.530519 -1.911651,-0.942376 -2.351319,-0.906154 -1.468422,0.120976 0.877612,1.020984 2.912097,2.17423 4.857748,2.753609 2.358894,0.702437 2.642957,0.657177 2.642957,-0.421104 z m 6.507022,0.041 c 1.944884,-0.712842 4.232241,-2.381756 4.232241,-3.087954 0,-0.408129 -0.226434,-0.347364 -1.652563,0.443473 -1.382047,0.766393 -3.358692,1.371849 -5.922453,1.814075 -0.270554,0.04666 -0.479432,0.448599 -0.479432,0.922545 0,0.799248 0.05099,0.832494 1.054748,0.687727 0.580113,-0.08366 1.825468,-0.434606 2.767459,-0.779866 z m -0.579606,-3.137619 c 0.939468,-0.331219 1.976275,-0.832535 2.304021,-1.114037 0.57495,-0.493826 0.545233,-0.522444 -0.845295,-0.813982 -2.43527,-0.510579 -6.889931,-0.597249 -10.029766,-0.19514 -1.559468,0.199716 -2.94023,0.427887 -3.068361,0.507048 -0.370102,0.228652 2.85941,1.844144 4.254194,2.128067 2.029709,0.413166 5.429717,0.177472 7.385207,-0.511956 z"
       id="path302" /><path
       style="fill:#186157;fill-opacity:1;stroke:#186157;stroke-width:0.3;stroke-linejoin:round;stroke-opacity:1"
       d="m 12.249995,30.416794 c -0.07859,0.01209 -0.09693,0.01949 -0.176657,0.01359 -0.03194,-0.0024 -0.07165,0.0082 -0.09512,-0.01359 -0.01826,-0.01695 0,-0.04983 0,-0.07474 0,-0.01132 0,-0.02265 0,-0.03397 0,-0.01812 -0.01132,-0.04021 0,-0.05436 0.04606,-0.05758 0.101276,-0.109242 0.163067,-0.149478 0.08041,-0.05236 0.156831,-0.04077 0.244601,-0.04077 0.02429,0 0.06598,-0.0067 0.08833,0.01359 0.04576,0.0416 0.05673,0.08762 0.06115,0.149479 0.01323,0.185154 0.02155,0.210022 -0.108712,0.353312 -0.04431,0.04874 -0.104862,0.07826 -0.169862,0.06115 -0.105904,-0.02787 -0.07474,-0.162191 -0.07474,-0.237806 0,-0.06308 -0.01563,-0.240282 0.05436,-0.264985 0.09647,-0.03405 0.08354,0.05602 0.08833,0.108712 0.0016,0.01804 0,0.03624 0,0.05436 0,0.01359 0.0074,0.02936 0,0.04077 -0.01914,0.02958 -0.04841,0.05133 -0.07474,0.07474 -0.01456,0.01294 -0.03378,0.0202 -0.04756,0.03397 -0.0032,0.0032 0.0091,0 0.01359,0 0.01812,0 0.03664,-0.0038 0.05436,0 0.0509,0.01091 0.04077,0.01603 0.04077,0.05436 0,0.0068 0.0038,0.01473 0,0.02038 -0.0025,0.0038 -0.0091,0 -0.01359,0 -0.0068,0 -0.01843,0.0065 -0.02038,0 -0.0065,-0.02169 0.0055,-0.04597 0,-0.06794 -0.004,-0.01584 -0.03282,-0.02544 -0.02718,-0.04077 0.01333,-0.03619 0.0441,-0.0649 0.07474,-0.08833 0.03712,-0.02839 0.04349,-0.0041 0.04077,0.01359 -0.0038,0.02503 0.0043,0.05683 -0.01359,0.07474 -0.03009,0.03009 -0.07498,0.04139 -0.115506,0.05436 -0.01726,0.0055 -0.04154,0.01281 -0.05436,0 -0.06048,-0.06048 0.07779,-0.09134 0.08833,-0.08833 0.01658,0.0047 0.01651,0.03075 0.02038,0.04756 0.01067,0.04624 -0.0086,0.08263 -0.05436,0.09512 -0.01093,0.003 -0.0345,0.01131 -0.03397,0 0.0028,-0.06053 0.0014,-0.301727 0.108712,-0.366901 0.0061,-0.0037 0.146246,-0.08754 0.163067,-0.0068 0.007,0.03377 0.01009,0.226434 -0.02718,0.264985 -0.04943,0.05113 -0.108116,0.09381 -0.169862,0.129095 -0.07557,0.04318 -0.339579,0.06341 -0.373696,0.05436 -0.04251,-0.01128 -0.0792,-0.06496 -0.07474,-0.108711 0.0084,-0.08263 0.05284,-0.162758 0.108712,-0.224218 0.04022,-0.04424 0.103627,-0.06826 0.163067,-0.07474 0.0707,-0.0077 0.144834,0.007 0.210629,0.03397 0.02428,0.01 0.06958,0.09642 0.07474,0.129095 0.0039,0.02461 0,0.04983 0,0.07474 0,0.01359 0.0087,0.03033 0,0.04077 -0.04498,0.05397 -0.01422,-0.02697 -0.05436,-0.01359 -0.0077,0.0026 -0.01618,0.0066 -0.02038,0.01359 -0.0036,0.006 0.01646,0.10694 -0.05436,0.02038 -0.03519,-0.04302 0.01053,-0.120826 0.03397,-0.149478 0.0043,-0.0053 0.01794,-0.0063 0.02038,0 0.02471,0.06424 0.0267,0.156647 -0.03397,0.203834 -0.02038,0.01585 -0.04896,0.01887 -0.07474,0.02038 -0.07992,0.0047 -0.05215,-0.103213 -0.05435,-0.149478 -1.84e-4,-0.0039 -0.01682,-0.150001 0.01359,-0.183451 0.01523,-0.01676 0.03245,-0.04653 0.05436,-0.04077 0.106587,0.02805 0.158977,0.343576 0.06115,0.407668 -0.04435,0.02906 -0.09898,0.0382 -0.149479,0.05436 -0.0065,0.0021 -0.01631,0.0054 -0.02038,0 -0.0054,-0.0072 -0.0019,-0.01831 0,-0.02718 0.0095,-0.04571 0.0098,-0.09591 0.03397,-0.135889 0.05665,-0.09388 0.123787,-0.183252 0.203834,-0.25819 0.02981,-0.0279 0.07611,-0.03002 0.115507,-0.04077 0.01092,-0.003 0.02597,-0.008 0.03397,0 0.008,0.008 0,0.02265 0,0.03397 0,0.03043 0.0077,0.113467 -0.01359,0.149478 -0.03227,0.05461 -0.102667,0.156822 -0.183451,0.149478 -0.02725,-0.0025 -0.05706,-0.01308 -0.07474,-0.03397 -0.0117,-0.01383 0,-0.03624 0,-0.05436 0,-0.03171 -0.0057,-0.06393 0,-0.09512 0.0036,-0.01993 0.01285,-0.04003 0.02718,-0.05436 0.01649,-0.01649 0.04005,-0.02404 0.06115,-0.03397 0.03582,-0.01685 0.08051,-0.04282 0.108712,0.01359 0.05162,0.103244 -0.119189,0.234041 -0.217424,0.224218 -0.0176,-0.0018 -0.04496,-0.01679 -0.04077,-0.03397 0.02114,-0.08668 0.05039,-0.177075 0.108711,-0.244601 0.03465,-0.04013 0.09764,-0.04325 0.149479,-0.05436 0.01401,-0.003 0.03476,5.82e-4 0.04077,0.01359 0.01044,0.02262 0.002,0.0499 0,0.07474 -0.009,0.112205 -0.0014,0.104084 -0.108712,0.169862 -0.03628,0.02224 -0.07629,0.03784 -0.115506,0.05436 -0.0042,0.0017 -0.01469,0.0044 -0.01359,0 0.0049,-0.01965 0.01204,-0.0409 0.02718,-0.05436 0.0273,-0.02426 0.06208,-0.03881 0.09512,-0.05436 0.0061,-0.0029 0.018,-0.0064 0.02038,0 0.0064,0.01696 0.0017,0.03632 0,0.05436 -0.0028,0.02966 0.0084,0.0682 -0.01359,0.08833 -0.03968,0.03638 -0.09894,0.04262 -0.149479,0.06115 -0.05955,0.02183 -0.09213,0.02988 -0.09512,-0.07474 -0.0052,-0.180853 0.169746,-0.315885 0.312546,-0.387285 0.01461,-0.0073 0.03236,0.01317 0.04077,0.02718 0.007,0.01165 0.0013,0.02724 0,0.04077 -0.0032,0.03187 -0.01069,0.06322 -0.01359,0.09512 -0.0016,0.01805 0.0075,0.03788 0,0.05436 -0.01832,0.03998 -0.04516,0.07617 -0.07474,0.108712 -0.01648,0.01813 -0.04058,0.02746 -0.06115,0.04077 -0.03955,0.02559 -0.09486,0.07134 -0.149478,0.03397 -0.0055,-0.0038 -0.05406,-0.115065 -0.03397,-0.142684 0.03645,-0.05012 0.118295,-0.134495 0.19704,-0.09512 0.01731,0.0087 0.02199,0.03507 0.02038,0.05436 -0.01271,0.152469 -0.141977,0.196403 -0.271779,0.224218 -0.01993,0.0043 -0.06328,0.02027 -0.06115,0 0.01404,-0.133374 0.07465,-0.312521 0.224218,-0.353313 0.144006,-0.03927 0.129095,0.117237 0.129095,0.203834 0,0.01575 0.0025,0.04429 -0.01359,0.05436 -0.085,0.05312 -0.02718,-0.111772 -0.02718,-0.142684 0,-0.01132 0.0018,0.02279 0,0.03397 -0.008,0.05001 -0.01116,0.101434 -0.02718,0.149478 -0.01963,0.05888 -0.05812,0.06244 -0.06115,0.05436 -0.02742,-0.07312 0.07434,-0.174154 0.108712,-0.203834 0.01413,-0.01221 0.03624,-0.0091 0.05436,-0.01359"
       id="path2130" /></g></svg>
