<?xml version="1.0" encoding="UTF-8" standalone="no"?>
<!-- Created with Inkscape (http://www.inkscape.org/) -->

<svg
   width="207.87401"
   height="207.87401"
   viewBox="0 0 54.999998 54.999998"
   version="1.1"
   id="svg5"
   xml:space="preserve"
   inkscape:version="1.2.1 (9c6d41e410, 2022-07-14)"
   sodipodi:docname="packageIcon.svg"
   inkscape:export-filename="packageIcon.png"
   inkscape:export-xdpi="96"
   inkscape:export-ydpi="96"
   xmlns:inkscape="http://www.inkscape.org/namespaces/inkscape"
   xmlns:sodipodi="http://sodipodi.sourceforge.net/DTD/sodipodi-0.dtd"
   xmlns="http://www.w3.org/2000/svg"
   xmlns:svg="http://www.w3.org/2000/svg"><sodipodi:namedview
     id="namedview7"
     pagecolor="#ffffff"
     bordercolor="#000000"
     borderopacity="0.25"
     inkscape:showpageshadow="2"
     inkscape:pageopacity="0.0"
     inkscape:pagecheckerboard="0"
     inkscape:deskcolor="#d1d1d1"
     inkscape:document-units="mm"
     showgrid="false"
     inkscape:zoom="1.7209638"
     inkscape:cx="71.47158"
     inkscape:cy="118.53823"
     inkscape:window-width="1600"
     inkscape:window-height="837"
     inkscape:window-x="-8"
     inkscape:window-y="-8"
     inkscape:window-maximized="1"
     inkscape:current-layer="layer1" /><defs
     id="defs2"><linearGradient
       id="linearGradient25815"
       inkscape:swatch="solid"><stop
         style="stop-color:#1a1a1a;stop-opacity:1;"
         offset="0"
         id="stop25813" /></linearGradient></defs><g
     inkscape:label="Layer 1"
     inkscape:groupmode="layer"
     id="layer1"
     transform="translate(-6.5222542,-11.208819)"><path
       style="fill:#000000;fill-opacity:1;stroke-width:0.329864"
       d="M 25.56529,65.613935 C 19.755119,65.315588 12.630126,63.200643 11.827492,62.00974 c -0.187761,-0.278591 -0.076,-4.934057 0.260024,-10.831952 L 12.676828,40.83441 11.01716,37.418478 C 7.5654566,30.314176 7.4159878,29.829427 7.3798709,25.62224 7.3436769,21.406348 7.7162996,20.48538 9.5996957,20.135735 10.124637,20.038284 13.05073,19.311171 16.102122,18.519933 l 5.547987,-1.438616 c 2.522733,-3.619169 4.694659,-4.052875 6.983541,-4.534338 2.920793,-0.600182 9.367799,-0.44186 12.273444,0.301406 3.087766,0.789854 3.291783,0.914862 4.287652,2.62717 0.443335,0.762276 1.113937,1.507831 1.490219,1.656786 0.376283,0.148956 3.399125,0.967848 6.717424,1.819761 3.318302,0.851912 6.178589,1.656416 6.356197,1.787787 0.671906,0.496991 1.171651,3.668316 0.927608,5.886531 -0.325005,2.954129 -0.961471,4.764787 -3.491281,9.932192 L 55.1102,40.816866 55.551802,50.91193 c 0.24288,5.552285 0.3449,10.281454 0.226713,10.509265 -0.348691,0.672124 -4.496556,2.150638 -8.183848,2.917145 -3.587898,0.745845 -7.023746,1.130194 -11.061541,1.332777 -0.769583,0.0386 -1.974804,-2.911251 -2.613144,-2.95109 -0.658939,-0.04113 -0.511161,-0.157401 -1.70616,1.364607 -1.243392,1.583643 -1.300934,1.803895 -6.648532,1.529301 z M 32.277329,43.955498 V 23.978564 l 0.156975,0.801463 c -6.500651,-5.283228 -9.297088,-6.089142 -15.297626,-4.509821 -3.048338,0.779804 -5.616399,1.472537 -5.706801,1.539404 -0.0904,0.06687 0.289685,0.895984 0.84464,1.84248 2.482311,4.233674 3.51996,9.259863 3.189683,15.450255 -0.411833,7.71897 -0.994238,17.197247 -1.208477,19.6672 l -0.204261,2.354932 2.017349,0.682806 c 3.568682,1.207881 8.924751,2.024303 13.715476,2.090634 l 2.646783,-2.044775 z m 7.968868,19.555664 c 4.830374,-0.538548 7.96746,-1.140162 10.782198,-2.06775 l 2.258628,-0.744325 -0.266987,-7.816178 c -0.146843,-4.2989 -0.426885,-9.946212 -0.622317,-12.54959 -0.511446,-6.813019 0.56704,-12.29646 3.332187,-16.9421 0.501861,-0.843161 0.867087,-1.559854 0.81162,-1.592654 -0.05547,-0.0328 -2.620864,-0.705787 -5.700881,-1.495526 l -5.715333,-2.00297 -0.643551,-0.02061 c 0,0 -4.970221,2.969734 -7.162907,4.394554 l -2.054812,1.335229 -0.246836,2.98398 c -0.321973,3.892343 -0.320102,31.454711 0.0023,34.815078 1.132438,2.705697 1.365471,1.970318 5.22662,1.702863 z M 13.291846,35.704727 c 0,-0.07801 -0.08629,-0.141849 -0.191772,-0.141849 -0.105484,0 -0.191772,0.06384 -0.191772,0.141849 0,0.07802 0.08629,0.141849 0.191772,0.141849 0.105484,0 0.191772,-0.06383 0.191772,-0.141849 z m 43.559607,-4.361801 c 0.513981,-1.306756 1.028901,-3.477038 1.14426,-4.82285 0.208427,-2.43149 0.205792,-2.440664 -0.417784,-1.45399 -0.803945,1.27207 -2.352378,6.40459 -2.653253,8.79461 l -0.23214,1.844031 0.612202,-0.99294 c 0.33671,-0.546117 1.03273,-2.062103 1.546715,-3.368861 z M 12.366781,31.080968 c -0.323276,-1.385617 -1.007048,-3.465387 -1.519492,-4.621714 l -0.9317166,-2.10241 -0.03115,1.702182 c -0.03612,1.972697 0.7374056,4.906993 1.9690706,7.469574 0.768179,1.598263 0.876122,1.700888 0.982056,0.93365 0.06546,-0.47409 -0.145486,-1.995667 -0.468763,-3.381282 z m 21.409124,-6.395301 c 0,-0.951636 0.642912,0.37742 -0.0107,0.37742 -1.252328,0 -3.806191,-2.763616 -5.616174,-3.860657 -1.911651,-1.158658 -4.063526,-4.522496 -3.180629,-3.259633 0.877612,1.255308 3.120022,2.09516 4.857748,3.385584 2.435765,1.808782 3.949759,4.68304 3.949759,3.357286 z M 37.28497,22.08971 c 1.944884,-0.876444 4.15537,-2.077769 4.15537,-2.946045 0,-0.501798 4.233197,-1.511442 -0.536807,1.540186 -2.573543,1.603877 -2.629551,1.589641 -5.500795,3.220262 -0.249244,0.14155 0.596758,-2.094812 0.596758,-1.512092 0,0.982682 0.819696,-0.110597 1.823454,-0.288591 0.580113,-0.10286 -1.479971,0.41078 -0.53798,-0.01372 z m -3.500692,1.340494 c 0.939468,-0.407236 10.382494,-6.104382 10.71024,-6.450491 0.57495,-0.607163 -3.248744,-1.988466 -4.639273,-2.346914 -2.43527,-0.627761 -6.889931,-0.734322 -10.029766,-0.239925 -1.559468,0.245551 -6.024852,2.446001 -6.152983,2.54333 -0.370102,0.281129 8.250153,5.876494 9.644937,6.650888 1.887784,1.048112 -1.488645,0.690769 0.466845,-0.156888 z"
       id="path302"
       sodipodi:nodetypes="ssccssssccssssssscssssssscccccssscssccsscsssssccscscssssssssssscsscsccssccssssssssscscssssssssss"
       inkscape:label="path302" /><path
       style="fill:#000000;fill-opacity:1;stroke:#000000;stroke-width:0.332649;stroke-linejoin:round;stroke-opacity:1"
       d="m 13.32272,35.661936 c -0.07859,0.01486 -0.09693,0.02396 -0.176657,0.01671 -0.03194,-0.0029 -0.07165,0.01013 -0.09512,-0.01671 -0.01826,-0.02084 0,-0.06126 0,-0.09189 0,-0.01392 0,-0.02785 0,-0.04177 0,-0.02228 -0.01132,-0.04944 0,-0.06684 0.04606,-0.0708 0.101276,-0.134314 0.163067,-0.183785 0.08041,-0.06438 0.156831,-0.05012 0.244601,-0.05012 0.02429,0 0.06598,-0.0082 0.08833,0.01671 0.04576,0.05115 0.05673,0.107725 0.06115,0.183786 0.01323,0.227649 0.02155,0.258224 -0.108712,0.4344 -0.04431,0.05992 -0.104862,0.09622 -0.169862,0.07518 -0.105904,-0.03427 -0.07474,-0.199416 -0.07474,-0.292385 0,-0.07756 -0.01563,-0.295428 0.05436,-0.325801 0.09647,-0.04187 0.08354,0.06887 0.08833,0.133662 0.0016,0.02219 0,0.04456 0,0.06684 0,0.01671 0.0074,0.03609 0,0.05012 -0.01914,0.03637 -0.04841,0.06311 -0.07474,0.09189 -0.01456,0.01591 -0.03378,0.02483 -0.04756,0.04177 -0.0032,0.0039 0.0091,0 0.01359,0 0.01812,0 0.03664,-0.0046 0.05436,0 0.0509,0.01341 0.04077,0.01971 0.04077,0.06683 0,0.0083 0.0038,0.01811 0,0.02506 -0.0025,0.0046 -0.0091,0 -0.01359,0 -0.0068,0 -0.01843,0.008 -0.02038,0 -0.0065,-0.02667 0.0055,-0.05652 0,-0.08354 -0.004,-0.01947 -0.03282,-0.03128 -0.02718,-0.05012 0.01333,-0.04449 0.0441,-0.0798 0.07474,-0.108604 0.03712,-0.03491 0.04349,-0.0051 0.04077,0.01671 -0.0038,0.03078 0.0043,0.06988 -0.01359,0.09189 -0.03009,0.03699 -0.07498,0.05089 -0.115506,0.06684 -0.01726,0.0068 -0.04154,0.01575 -0.05436,0 -0.06048,-0.07436 0.07779,-0.112297 0.08833,-0.108603 0.01658,0.0057 0.01651,0.0378 0.02038,0.05848 0.01067,0.05685 -0.0086,0.101599 -0.05436,0.116952 -0.01093,0.0037 -0.0345,0.01391 -0.03397,0 0.0028,-0.07443 0.0014,-0.370976 0.108712,-0.451108 0.0061,-0.0045 0.146246,-0.107635 0.163067,-0.0083 0.007,0.04152 0.01009,0.278401 -0.02718,0.3258 -0.04943,0.06286 -0.108116,0.11534 -0.169862,0.158723 -0.07557,0.0531 -0.339579,0.07796 -0.373696,0.06684 -0.04251,-0.01387 -0.0792,-0.07986 -0.07474,-0.133661 0.0084,-0.101599 0.05284,-0.200113 0.108712,-0.275678 0.04022,-0.05439 0.103627,-0.08393 0.163067,-0.09189 0.0707,-0.0095 0.144834,0.0086 0.210629,0.04177 0.02428,0.0123 0.06958,0.118549 0.07474,0.158723 0.0039,0.03026 0,0.06127 0,0.09189 0,0.01671 0.0087,0.03729 0,0.05012 -0.04498,0.06635 -0.01422,-0.03316 -0.05436,-0.01671 -0.0077,0.0032 -0.01618,0.0081 -0.02038,0.01671 -0.0036,0.0074 0.01646,0.131483 -0.05436,0.02506 -0.03519,-0.05289 0.01053,-0.148558 0.03397,-0.183785 0.0043,-0.0065 0.01794,-0.0078 0.02038,0 0.02471,0.07899 0.0267,0.192599 -0.03397,0.250616 -0.02038,0.01949 -0.04896,0.0232 -0.07474,0.02506 -0.07992,0.0057 -0.05215,-0.126902 -0.05435,-0.183785 -1.84e-4,-0.0048 -0.01682,-0.184426 0.01359,-0.225554 0.01523,-0.02061 0.03245,-0.05721 0.05436,-0.05012 0.106587,0.03449 0.158977,0.422428 0.06115,0.50123 -0.04435,0.03573 -0.09898,0.04697 -0.149479,0.06684 -0.0065,0.0026 -0.01631,0.0066 -0.02038,0 -0.0054,-0.0089 -0.0019,-0.02251 0,-0.03341 0.0095,-0.0562 0.0098,-0.117923 0.03397,-0.167077 0.05665,-0.115426 0.123787,-0.22531 0.203834,-0.317446 0.02981,-0.0343 0.07611,-0.03691 0.115507,-0.05012 0.01092,-0.0037 0.02597,-0.0098 0.03397,0 0.008,0.0098 0,0.02785 0,0.04177 0,0.03741 0.0077,0.139509 -0.01359,0.183785 -0.03227,0.06714 -0.102667,0.192814 -0.183451,0.183784 -0.02725,-0.003 -0.05706,-0.01608 -0.07474,-0.04177 -0.0117,-0.017 0,-0.04456 0,-0.06684 0,-0.03899 -0.0057,-0.0786 0,-0.11695 0.0036,-0.0245 0.01285,-0.04922 0.02718,-0.06684 0.01649,-0.02027 0.04005,-0.02956 0.06115,-0.04177 0.03582,-0.02072 0.08051,-0.05265 0.108712,0.01671 0.05162,0.126939 -0.119189,0.287755 -0.217424,0.275678 -0.0176,-0.0023 -0.04496,-0.02064 -0.04077,-0.04177 0.02114,-0.106577 0.05039,-0.217715 0.108711,-0.300739 0.03465,-0.04934 0.09764,-0.05318 0.149479,-0.06684 0.01401,-0.0037 0.03476,7.15e-4 0.04077,0.01671 0.01044,0.02782 0.002,0.06135 0,0.09189 -0.009,0.137956 -0.0014,0.127972 -0.108712,0.208846 -0.03628,0.02734 -0.07629,0.04652 -0.115506,0.06684 -0.0042,0.0021 -0.01469,0.0054 -0.01359,0 0.0049,-0.02416 0.01204,-0.05028 0.02718,-0.06684 0.0273,-0.02983 0.06208,-0.04771 0.09512,-0.06684 0.0061,-0.0036 0.018,-0.0079 0.02038,0 0.0064,0.02086 0.0017,0.04465 0,0.06684 -0.0028,0.03646 0.0084,0.08385 -0.01359,0.108604 -0.03968,0.04473 -0.09894,0.0524 -0.149479,0.07518 -0.05955,0.02684 -0.09213,0.03673 -0.09512,-0.09189 -0.0052,-0.22236 0.169746,-0.388383 0.312546,-0.47617 0.01461,-0.009 0.03236,0.01619 0.04077,0.03341 0.007,0.01432 0.0013,0.03349 0,0.05012 -0.0032,0.03919 -0.01069,0.07773 -0.01359,0.11695 -0.0016,0.0222 0.0075,0.04658 0,0.06684 -0.01832,0.04915 -0.04516,0.09365 -0.07474,0.133662 -0.01648,0.02229 -0.04058,0.03376 -0.06115,0.05012 -0.03955,0.03146 -0.09486,0.08771 -0.149478,0.04177 -0.0055,-0.0046 -0.05406,-0.141473 -0.03397,-0.175431 0.03645,-0.06162 0.118295,-0.165363 0.19704,-0.116951 0.01731,0.0107 0.02199,0.04312 0.02038,0.06684 -0.01271,0.187461 -0.141977,0.241479 -0.271779,0.275678 -0.01993,0.0053 -0.06328,0.02492 -0.06115,0 0.01404,-0.163985 0.07465,-0.384247 0.224218,-0.434401 0.144006,-0.04828 0.129095,0.144144 0.129095,0.250616 0,0.01937 0.0025,0.05446 -0.01359,0.06683 -0.085,0.06532 -0.02718,-0.137424 -0.02718,-0.175431 0,-0.01392 0.0018,0.02802 0,0.04177 -0.008,0.06149 -0.01116,0.124714 -0.02718,0.183784 -0.01963,0.0724 -0.05812,0.07677 -0.06115,0.06683 -0.02742,-0.0899 0.07434,-0.214123 0.108712,-0.250615 0.01413,-0.01501 0.03624,-0.01115 0.05436,-0.01671"
       id="path2130" /><path
       style="fill:#186157;fill-opacity:1;stroke:#2f2f2f;stroke-width:1.4437;stroke-linecap:round;stroke-linejoin:round;stroke-dasharray:none;stroke-dashoffset:0;stroke-opacity:1"
       d="m 18.391767,50.537801 c 0.451393,0 0.902784,0 1.354177,0 1.145841,0 2.291683,0 3.437524,0 0.381948,0 0.763895,0 1.145842,0 0.06945,0 -0.13889,0 -0.208335,0"
       id="path2566" /><ellipse
       style="fill:#2f2f2f;fill-opacity:1;stroke:#2f2f2f;stroke-width:0.977989;stroke-linecap:round;stroke-linejoin:round;stroke-dasharray:none;stroke-dashoffset:0;stroke-opacity:1"
       id="path3826"
       cx="33.612572"
       cy="25.832033"
       rx="0.66109657"
       ry="0.81282324" /><ellipse
       style="fill:#2f2f2f;fill-opacity:1;stroke:#2f2f2f;stroke-width:0.977699;stroke-linecap:round;stroke-linejoin:round;stroke-dasharray:none;stroke-dashoffset:0;stroke-opacity:1"
       id="path3826-4"
       cx="33.591438"
       cy="45.514088"
       rx="0.66109657"
       ry="0.81282324" /><ellipse
       style="fill:#2f2f2f;fill-opacity:1;stroke:#2f2f2f;stroke-width:0.977699;stroke-linecap:round;stroke-linejoin:round;stroke-dasharray:none;stroke-dashoffset:0;stroke-opacity:1"
       id="path3826-6"
       cx="33.591434"
       cy="35.222137"
       rx="0.66109657"
       ry="0.81282324" /><ellipse
       style="fill:#2f2f2f;fill-opacity:1;stroke:#2f2f2f;stroke-width:0.977699;stroke-linecap:round;stroke-linejoin:round;stroke-dasharray:none;stroke-dashoffset:0;stroke-opacity:1"
       id="path3826-7"
       cx="33.591434"
       cy="55.806038"
       rx="0.66109657"
       ry="0.81282324" /><path
       style="fill:#003b33;fill-opacity:0;stroke:#b9b9b9;stroke-width:0.989078;stroke-linecap:round;stroke-linejoin:bevel;stroke-dasharray:1.97817, 0.989078, 0.49454, 0.989078;stroke-dashoffset:0;stroke-opacity:1"
       d="m 21.634302,52.226313 c 0,0 1.087372,7.727934 3.200554,7.985528 1.036593,0.126359 2.50936,-1.681165 4.596786,-7.350256 6.342822,-17.226012 4.527473,-15.526388 4.527473,-15.526388"
       id="path9074"
       sodipodi:nodetypes="cssc" /></g></svg>
